<svg width="366" height="140" viewBox="0 0 366 140" fill="none" xmlns="http://www.w3.org/2000/svg">
<path d="M142.875 4.25C133.994 13.535 119.829 34.6527 141.145 62.75" stroke="#135CF8" stroke-width="10"/>
<path d="M153.603 15.5C148.526 20.8077 141.419 35.4385 153.603 51.5" stroke="#135CF8" stroke-width="10"/>
<path d="M191.021 52.6449H171.597L167.223 63H157.704L177.257 17.6562H185.489L205.042 63H195.33L191.021 52.6449ZM181.309 28.2685L174.427 45.377H188.191L181.309 28.2685Z" fill="#135CF8"/>
<path d="M176.508 5.75882C177.71 4.58627 179.288 4 181.242 4C183.045 4 184.573 4.58627 185.825 5.75882C187.078 6.93137 187.704 8.48627 187.704 10.4235C187.704 12.4118 187.078 14.0176 185.825 15.2412C184.573 16.4137 183.045 17 181.242 17C179.338 17 177.76 16.4137 176.508 15.2412C175.305 14.0176 174.704 12.4118 174.704 10.4235C174.704 8.48627 175.305 6.93137 176.508 5.75882Z" fill="#135CF8"/>
<path d="M223.125 4.25C232.006 13.535 246.171 34.6527 224.855 62.75" stroke="#135CF8" stroke-width="10"/>
<path d="M212.397 15.5C217.474 20.8077 224.581 35.4385 212.397 51.5" stroke="#135CF8" stroke-width="10"/>
<path d="M343.424 128.601L329.017 94.8344H339.437L347.605 117.86L355.194 94.8344H365.357L348.313 139.213H339.758L343.424 128.601Z" fill="#135CF8"/>
<path d="M309.089 122.555C311.705 122.555 313.977 121.633 315.907 119.79V114.001C314.191 113.058 312.176 112.586 309.861 112.586C307.888 112.586 306.259 113.036 304.973 113.937C303.729 114.837 303.107 116.059 303.107 117.603C303.107 119.104 303.686 120.304 304.844 121.205C306.002 122.105 307.417 122.555 309.089 122.555ZM321.438 97.8573C324.225 100.259 325.619 103.775 325.619 108.405V128.858L315.842 124.871C314.47 126.243 312.969 127.293 311.34 128.022C309.711 128.751 307.803 129.116 305.616 129.116C303.429 129.116 301.392 128.687 299.506 127.829C297.662 126.929 296.183 125.642 295.068 123.97C293.953 122.255 293.395 120.24 293.395 117.924C293.395 114.365 294.66 111.686 297.19 109.885C299.72 108.084 303 107.183 307.031 107.183C310.461 107.183 313.42 107.719 315.907 108.791V108.019C315.907 105.918 315.156 104.396 313.655 103.453C312.198 102.467 310.032 101.974 307.159 101.974C303.3 101.974 299.613 102.767 296.097 104.353V96.9569C298.241 96.0993 300.363 95.4347 302.464 94.963C304.565 94.4914 306.859 94.2556 309.346 94.2556C314.62 94.2556 318.651 95.4561 321.438 97.8573Z" fill="#135CF8"/>
<path d="M290.26 94.2556C290.861 94.2556 291.29 94.277 291.547 94.3199V104.546C291.29 104.418 290.754 104.353 289.939 104.353C286.98 104.353 284.601 105.275 282.8 107.119C280.999 108.963 280.098 111.707 280.098 115.352V128.344H270.193V94.8344L280.163 100.623C282.435 96.378 285.801 94.2556 290.26 94.2556Z" fill="#135CF8"/>
<path d="M246.342 122.555C248.957 122.555 251.23 121.633 253.159 119.79V114.001C251.444 113.058 249.429 112.586 247.113 112.586C245.141 112.586 243.512 113.036 242.225 113.937C240.982 114.837 240.36 116.059 240.36 117.603C240.36 119.104 240.939 120.304 242.097 121.205C243.254 122.105 244.669 122.555 246.342 122.555ZM258.691 97.8573C261.478 100.259 262.871 103.775 262.871 108.405V128.858L253.095 124.871C251.723 126.243 250.222 127.293 248.593 128.022C246.963 128.751 245.055 129.116 242.869 129.116C240.682 129.116 238.645 128.687 236.758 127.829C234.915 126.929 233.435 125.642 232.32 123.97C231.206 122.255 230.648 120.24 230.648 117.924C230.648 114.365 231.913 111.686 234.443 109.885C236.973 108.084 240.253 107.183 244.284 107.183C247.714 107.183 250.672 107.719 253.159 108.791V108.019C253.159 105.918 252.409 104.396 250.908 103.453C249.45 102.467 247.285 101.974 244.412 101.974C240.553 101.974 236.866 102.767 233.35 104.353V96.9569C235.493 96.0993 237.616 95.4347 239.717 94.963C241.818 94.4914 244.112 94.2556 246.599 94.2556C251.873 94.2556 255.904 95.4561 258.691 97.8573Z" fill="#135CF8"/>
<path d="M222.189 97.6001C224.29 99.9155 225.341 102.938 225.341 106.669V128.344H215.436V109.756C215.436 107.484 214.879 105.768 213.764 104.611C212.649 103.453 211.277 102.874 209.648 102.874C207.975 102.874 206.496 103.474 205.21 104.675C203.966 105.833 203.344 107.526 203.344 109.756V128.344H193.44V94.8344L203.409 99.401C206.196 95.8421 209.626 94.0626 213.7 94.0626C217.301 94.0626 220.131 95.2418 222.189 97.6001Z" fill="#135CF8"/>
<path d="M183.373 97.6001C185.474 99.9155 186.524 102.938 186.524 106.669V128.344H176.62V109.756C176.62 107.484 176.062 105.768 174.947 104.611C173.832 103.453 172.46 102.874 170.831 102.874C169.159 102.874 167.679 103.474 166.393 104.675C165.15 105.833 164.528 107.526 164.528 109.756V128.344H154.623V94.8344L164.592 99.401C167.379 95.8421 170.809 94.0626 174.883 94.0626C178.485 94.0626 181.315 95.2418 183.373 97.6001Z" fill="#135CF8"/>
<path d="M140.024 120.69C142.382 119.875 144.312 118.761 145.812 117.346V125.578C144.012 126.822 141.953 127.744 139.638 128.344C137.365 128.987 135.136 129.309 132.949 129.309C129.604 129.309 126.603 128.558 123.944 127.057C121.286 125.557 119.206 123.477 117.706 120.819C116.248 118.117 115.519 115.073 115.519 111.686C115.519 108.384 116.248 105.425 117.706 102.81C119.164 100.151 121.179 98.0717 123.752 96.571C126.324 95.0274 129.261 94.2556 132.563 94.2556C135.908 94.2556 138.802 95.0702 141.246 96.6996C143.69 98.329 145.555 100.537 146.842 103.324C148.171 106.069 148.9 109.07 149.028 112.329L125.745 118.246C127.375 120.69 129.862 121.912 133.206 121.912C135.393 121.912 137.666 121.505 140.024 120.69ZM126.71 104.675C125.51 106.562 124.909 108.748 124.909 111.235L125.038 111.557L139.252 107.891C138.823 106.004 137.966 104.525 136.679 103.453C135.436 102.338 133.914 101.781 132.113 101.781C129.754 101.781 127.954 102.745 126.71 104.675Z" fill="#135CF8"/>
<path d="M97.3653 126.414C95.5644 124.613 94.6639 121.998 94.6639 118.568V102.874H88.1036L104.505 84.0934V94.8344H112.673V102.874H104.505V117.153C104.505 119.468 105.555 120.626 107.656 120.626C108.771 120.626 110.079 120.304 111.579 119.661V127.508C109.779 128.537 107.549 129.051 104.89 129.051C101.675 129.051 99.1662 128.172 97.3653 126.414Z" fill="#135CF8"/>
<path d="M80.8668 97.6001C82.9679 99.9155 84.0184 102.938 84.0184 106.669V128.344H74.1135V109.756C74.1135 107.484 73.5561 105.768 72.4413 104.611C71.3264 103.453 69.9543 102.874 68.3249 102.874C66.6527 102.874 65.1734 103.474 63.887 104.675C62.6436 105.833 62.0218 107.526 62.0218 109.756V128.344H52.1169V94.8344L62.0861 99.401C64.8732 95.8421 68.3035 94.0626 72.3769 94.0626C75.9787 94.0626 78.8087 95.2418 80.8668 97.6001Z" fill="#135CF8"/>
<path d="M34.0241 118.761H15.3077L11.32 128.344H0.643341L20.0029 83H29.5219L48.9458 128.344H38.0118L34.0241 118.761ZM24.6981 94.9631L18.4593 110.657H30.9369L24.6981 94.9631Z" fill="#135CF8"/>
</svg>
